# xmcd
#
# Track frame offsets:
#  150
#  11355
#  24255
#  38321
#  51116
#  63239
#  77202
#  90889
#  103689
#  117296
#  130180
#  142728
#  156791
#  170359
#  186994
#  200589
#  213937
#  227097
#  241524
#  256432
#  270989
#  283700
#  298076
#  309229
#  321282
#
# Disc length: 4469 seconds
#
# Revision: 0
# Processed by: cddbd v1.5.2PL0 Copyright (c) Steve Scherf et al.
# Submitted via: AltoMP3_Maker 3.0
#
DISCID=45117319
DTITLE=Roosevelt Sykes - The Roosevelt Sykes Collection, 1928-47, CD3
DYEAR=1900
DGENRE=
TTITLE0=K.M.A. Blues
TTITLE1=Just Hanging Around
TTITLE2=Pay Day Blues
TTITLE3=15C a Day
TTITLE4=Roll on Blues
TTITLE5=Keep Your Hands off Her
TTITLE6=Skin and Bone Blues
TTITLE7=Let the Black Have His Way
TTITLE8=Third Degree Blues
TTITLE9=Training Camp Blues
TTITLE10=Sugar Babe Blues
TTITLE11=I Wonder
TTITLE12=Love Has Something to Say
TTITLE13=Tender Hearted Woman Blues (I'll Wear the Pants)
TTITLE14=Don't Push Me Around
TTITLE15=Date Bait
TTITLE16=Tonight
TTITLE17=Living in a Different World
TTITLE18=Flames of Jive
TTITLE19=Bop De Bip
TTITLE20=Bobby Sox Blues
TTITLE21=Walkin' and Drinkin'
TTITLE22=Mama Mama
TTITLE23=Booze Blues
TTITLE24=Until the Cows Come Home
EXTD=
EXTT0=
EXTT1=
EXTT2=
EXTT3=
EXTT4=
EXTT5=
EXTT6=
EXTT7=
EXTT8=
EXTT9=
EXTT10=
EXTT11=
EXTT12=
EXTT13=
EXTT14=
EXTT15=
EXTT16=
EXTT17=
EXTT18=
EXTT19=
EXTT20=
EXTT21=
EXTT22=
EXTT23=
EXTT24=
PLAYORDER=
